<mxfile host="app.diagrams.net" agent="Mozilla/5.0 (Windows NT 10.0; Win64; x64) AppleWebKit/537.36 (KHTML, like Gecko) Chrome/137.0.0.0 Safari/537.36" version="27.1.3">
  <diagram name="Trang-1" id="h2h2rBT-MPb3T32HrUWZ">
    <mxGraphModel dx="1389" dy="1849" grid="1" gridSize="10" guides="1" tooltips="1" connect="1" arrows="1" fold="1" page="1" pageScale="1" pageWidth="850" pageHeight="1100" math="0" shadow="0">
      <root>
        <mxCell id="0" />
        <mxCell id="1" parent="0" />
        <mxCell id="W8KMmCxhdzmbt_tsZO_R-1" value="User" style="shape=umlActor;verticalLabelPosition=bottom;verticalAlign=top;html=1;outlineConnect=0;" parent="1" vertex="1">
          <mxGeometry x="210" y="-10" width="30" height="60" as="geometry" />
        </mxCell>
        <mxCell id="W8KMmCxhdzmbt_tsZO_R-2" value="" style="endArrow=none;dashed=1;html=1;rounded=0;entryX=0.5;entryY=0.5;entryDx=0;entryDy=0;entryPerimeter=0;" parent="1" edge="1">
          <mxGeometry width="50" height="50" relative="1" as="geometry">
            <mxPoint x="224.5" y="160" as="sourcePoint" />
            <mxPoint x="224.5" y="80" as="targetPoint" />
          </mxGeometry>
        </mxCell>
        <mxCell id="W8KMmCxhdzmbt_tsZO_R-7" value="" style="shape=cylinder3;whiteSpace=wrap;html=1;boundedLbl=1;backgroundOutline=1;size=15;fillColor=light-dark(#FFFFCC,#FFFFCC);" parent="1" vertex="1">
          <mxGeometry x="1120" y="-30" width="60" height="80" as="geometry" />
        </mxCell>
        <mxCell id="W8KMmCxhdzmbt_tsZO_R-8" value="" style="endArrow=none;dashed=1;html=1;rounded=0;entryX=0.502;entryY=1.013;entryDx=0;entryDy=0;entryPerimeter=0;" parent="1" source="W8KMmCxhdzmbt_tsZO_R-16" edge="1">
          <mxGeometry width="50" height="50" relative="1" as="geometry">
            <mxPoint x="369.50000000000006" y="148.96" as="sourcePoint" />
            <mxPoint x="369.50000000000006" y="79.99999999999997" as="targetPoint" />
          </mxGeometry>
        </mxCell>
        <mxCell id="W8KMmCxhdzmbt_tsZO_R-9" value="" style="endArrow=none;dashed=1;html=1;rounded=0;entryX=0.496;entryY=0.983;entryDx=0;entryDy=0;entryPerimeter=0;" parent="1" edge="1">
          <mxGeometry width="50" height="50" relative="1" as="geometry">
            <mxPoint x="544.4999999999999" y="160" as="sourcePoint" />
            <mxPoint x="544.4999999999999" y="78.6400000000001" as="targetPoint" />
          </mxGeometry>
        </mxCell>
        <mxCell id="W8KMmCxhdzmbt_tsZO_R-11" value="" style="endArrow=none;dashed=1;html=1;rounded=0;entryX=0.503;entryY=0.983;entryDx=0;entryDy=0;entryPerimeter=0;" parent="1" edge="1">
          <mxGeometry width="50" height="50" relative="1" as="geometry">
            <mxPoint x="749.5" y="301.36" as="sourcePoint" />
            <mxPoint x="749.5" y="80.0000000000001" as="targetPoint" />
          </mxGeometry>
        </mxCell>
        <mxCell id="W8KMmCxhdzmbt_tsZO_R-12" value="" style="endArrow=none;dashed=1;html=1;rounded=0;entryX=0.5;entryY=1;entryDx=0;entryDy=0;" parent="1" source="W8KMmCxhdzmbt_tsZO_R-35" edge="1">
          <mxGeometry width="50" height="50" relative="1" as="geometry">
            <mxPoint x="970" y="450" as="sourcePoint" />
            <mxPoint x="970" y="80" as="targetPoint" />
          </mxGeometry>
        </mxCell>
        <mxCell id="W8KMmCxhdzmbt_tsZO_R-13" value="" style="endArrow=none;dashed=1;html=1;rounded=0;entryX=0.5;entryY=1;entryDx=0;entryDy=0;entryPerimeter=0;" parent="1" source="5d_SmO3lW9Q9y3Tc88da-15" edge="1">
          <mxGeometry width="50" height="50" relative="1" as="geometry">
            <mxPoint x="1149.5" y="510" as="sourcePoint" />
            <mxPoint x="1149.5" y="80" as="targetPoint" />
          </mxGeometry>
        </mxCell>
        <mxCell id="W8KMmCxhdzmbt_tsZO_R-15" value="" style="endArrow=none;dashed=1;html=1;rounded=0;entryX=0.5;entryY=0.5;entryDx=0;entryDy=0;entryPerimeter=0;exitX=0.064;exitY=1.001;exitDx=0;exitDy=0;exitPerimeter=0;" parent="1" source="5d_SmO3lW9Q9y3Tc88da-19" target="W8KMmCxhdzmbt_tsZO_R-14" edge="1">
          <mxGeometry width="50" height="50" relative="1" as="geometry">
            <mxPoint x="225" y="730" as="sourcePoint" />
            <mxPoint x="225" y="50" as="targetPoint" />
          </mxGeometry>
        </mxCell>
        <mxCell id="W8KMmCxhdzmbt_tsZO_R-14" value="" style="html=1;points=[[0,0,0,0,5],[0,1,0,0,-5],[1,0,0,0,5],[1,1,0,0,-5]];perimeter=orthogonalPerimeter;outlineConnect=0;targetShapes=umlLifeline;portConstraint=eastwest;newEdgeStyle={&quot;curved&quot;:0,&quot;rounded&quot;:0};" parent="1" vertex="1">
          <mxGeometry x="220" y="110" width="10" height="330" as="geometry" />
        </mxCell>
        <mxCell id="W8KMmCxhdzmbt_tsZO_R-17" value="" style="endArrow=none;dashed=1;html=1;rounded=0;entryX=0.5;entryY=1;entryDx=0;entryDy=0;exitX=0.5;exitY=0.42;exitDx=0;exitDy=0;exitPerimeter=0;" parent="1" edge="1" source="5d_SmO3lW9Q9y3Tc88da-4">
          <mxGeometry width="50" height="50" relative="1" as="geometry">
            <mxPoint x="369.83333333333326" y="170" as="sourcePoint" />
            <mxPoint x="369.5" y="140" as="targetPoint" />
          </mxGeometry>
        </mxCell>
        <mxCell id="W8KMmCxhdzmbt_tsZO_R-19" value="Quên mật khẩu" style="html=1;verticalAlign=bottom;endArrow=block;curved=0;rounded=0;" parent="1" edge="1">
          <mxGeometry width="80" relative="1" as="geometry">
            <mxPoint x="230" y="130" as="sourcePoint" />
            <mxPoint x="365" y="130" as="targetPoint" />
            <Array as="points">
              <mxPoint x="300" y="130" />
            </Array>
          </mxGeometry>
        </mxCell>
        <mxCell id="W8KMmCxhdzmbt_tsZO_R-21" value="" style="endArrow=none;dashed=1;html=1;rounded=0;entryX=0.5;entryY=1;entryDx=0;entryDy=0;" parent="1" source="W8KMmCxhdzmbt_tsZO_R-43" target="W8KMmCxhdzmbt_tsZO_R-20" edge="1">
          <mxGeometry width="50" height="50" relative="1" as="geometry">
            <mxPoint x="545" y="640" as="sourcePoint" />
            <mxPoint x="610" y="80" as="targetPoint" />
          </mxGeometry>
        </mxCell>
        <mxCell id="W8KMmCxhdzmbt_tsZO_R-20" value="" style="html=1;points=[[0,0,0,0,5],[0,1,0,0,-5],[1,0,0,0,5],[1,1,0,0,-5]];perimeter=orthogonalPerimeter;outlineConnect=0;targetShapes=umlLifeline;portConstraint=eastwest;newEdgeStyle={&quot;curved&quot;:0,&quot;rounded&quot;:0};" parent="1" vertex="1">
          <mxGeometry x="540" y="140" width="10" height="180" as="geometry" />
        </mxCell>
        <mxCell id="W8KMmCxhdzmbt_tsZO_R-24" value="Quên mật khẩu" style="html=1;verticalAlign=bottom;endArrow=block;curved=0;rounded=0;" parent="1" edge="1">
          <mxGeometry width="80" relative="1" as="geometry">
            <mxPoint x="375" y="149.5" as="sourcePoint" />
            <mxPoint x="540" y="149.5" as="targetPoint" />
          </mxGeometry>
        </mxCell>
        <mxCell id="W8KMmCxhdzmbt_tsZO_R-26" value="Nhập&amp;nbsp;&lt;span style=&quot;background-color: light-dark(#ffffff, var(--ge-dark-color, #121212)); color: light-dark(rgb(0, 0, 0), rgb(255, 255, 255));&quot;&gt;email&lt;/span&gt;" style="html=1;verticalAlign=bottom;endArrow=open;dashed=1;endSize=8;curved=0;rounded=0;" parent="1" edge="1">
          <mxGeometry relative="1" as="geometry">
            <mxPoint x="540" y="220" as="sourcePoint" />
            <mxPoint x="230" y="220" as="targetPoint" />
          </mxGeometry>
        </mxCell>
        <mxCell id="W8KMmCxhdzmbt_tsZO_R-28" value="email" style="html=1;verticalAlign=bottom;endArrow=block;curved=0;rounded=0;" parent="1" target="W8KMmCxhdzmbt_tsZO_R-20" edge="1">
          <mxGeometry width="80" relative="1" as="geometry">
            <mxPoint x="230" y="260" as="sourcePoint" />
            <mxPoint x="520" y="260" as="targetPoint" />
          </mxGeometry>
        </mxCell>
        <mxCell id="W8KMmCxhdzmbt_tsZO_R-30" value="" style="endArrow=none;dashed=1;html=1;rounded=0;entryX=0.5;entryY=1;entryDx=0;entryDy=0;" parent="1" source="W8KMmCxhdzmbt_tsZO_R-50" target="W8KMmCxhdzmbt_tsZO_R-29" edge="1">
          <mxGeometry width="50" height="50" relative="1" as="geometry">
            <mxPoint x="750" y="640" as="sourcePoint" />
            <mxPoint x="750" y="80" as="targetPoint" />
          </mxGeometry>
        </mxCell>
        <mxCell id="W8KMmCxhdzmbt_tsZO_R-29" value="" style="html=1;points=[[0,0,0,0,5],[0,1,0,0,-5],[1,0,0,0,5],[1,1,0,0,-5]];perimeter=orthogonalPerimeter;outlineConnect=0;targetShapes=umlLifeline;portConstraint=eastwest;newEdgeStyle={&quot;curved&quot;:0,&quot;rounded&quot;:0};" parent="1" vertex="1">
          <mxGeometry x="745" y="280" width="10" height="50" as="geometry" />
        </mxCell>
        <mxCell id="W8KMmCxhdzmbt_tsZO_R-31" value="sendEmailResetPass(email)" style="html=1;verticalAlign=bottom;endArrow=block;curved=0;rounded=0;" parent="1" target="W8KMmCxhdzmbt_tsZO_R-29" edge="1">
          <mxGeometry width="80" relative="1" as="geometry">
            <mxPoint x="550" y="290" as="sourcePoint" />
            <mxPoint x="630" y="290" as="targetPoint" />
          </mxGeometry>
        </mxCell>
        <mxCell id="W8KMmCxhdzmbt_tsZO_R-34" value="" style="endArrow=none;dashed=1;html=1;rounded=0;entryX=0.5;entryY=1;entryDx=0;entryDy=0;exitX=0.779;exitY=1;exitDx=0;exitDy=0;exitPerimeter=0;" parent="1" target="W8KMmCxhdzmbt_tsZO_R-35" edge="1" source="5d_SmO3lW9Q9y3Tc88da-19">
          <mxGeometry width="50" height="50" relative="1" as="geometry">
            <mxPoint x="970" y="850" as="sourcePoint" />
            <mxPoint x="970" y="80" as="targetPoint" />
          </mxGeometry>
        </mxCell>
        <mxCell id="W8KMmCxhdzmbt_tsZO_R-35" value="" style="html=1;points=[[0,0,0,0,5],[0,1,0,0,-5],[1,0,0,0,5],[1,1,0,0,-5]];perimeter=orthogonalPerimeter;outlineConnect=0;targetShapes=umlLifeline;portConstraint=eastwest;newEdgeStyle={&quot;curved&quot;:0,&quot;rounded&quot;:0};" parent="1" vertex="1">
          <mxGeometry x="965" y="290" width="10" height="420" as="geometry" />
        </mxCell>
        <mxCell id="W8KMmCxhdzmbt_tsZO_R-38" value="sendEmailOTP(email)" style="html=1;verticalAlign=bottom;endArrow=block;curved=0;rounded=0;" parent="1" target="W8KMmCxhdzmbt_tsZO_R-35" edge="1">
          <mxGeometry width="80" relative="1" as="geometry">
            <mxPoint x="755" y="310" as="sourcePoint" />
            <mxPoint x="835" y="310" as="targetPoint" />
          </mxGeometry>
        </mxCell>
        <mxCell id="W8KMmCxhdzmbt_tsZO_R-40" value="Email Reset Password" style="html=1;verticalAlign=bottom;endArrow=open;dashed=1;endSize=8;curved=0;rounded=0;" parent="1" edge="1">
          <mxGeometry relative="1" as="geometry">
            <mxPoint x="965" y="370" as="sourcePoint" />
            <mxPoint x="230" y="370" as="targetPoint" />
          </mxGeometry>
        </mxCell>
        <mxCell id="W8KMmCxhdzmbt_tsZO_R-44" value="" style="endArrow=none;dashed=1;html=1;rounded=0;entryX=0.5;entryY=1;entryDx=0;entryDy=0;" parent="1" source="W8KMmCxhdzmbt_tsZO_R-67" target="W8KMmCxhdzmbt_tsZO_R-43" edge="1">
          <mxGeometry width="50" height="50" relative="1" as="geometry">
            <mxPoint x="545" y="850" as="sourcePoint" />
            <mxPoint x="545" y="310" as="targetPoint" />
          </mxGeometry>
        </mxCell>
        <mxCell id="W8KMmCxhdzmbt_tsZO_R-43" value="" style="html=1;points=[[0,0,0,0,5],[0,1,0,0,-5],[1,0,0,0,5],[1,1,0,0,-5]];perimeter=orthogonalPerimeter;outlineConnect=0;targetShapes=umlLifeline;portConstraint=eastwest;newEdgeStyle={&quot;curved&quot;:0,&quot;rounded&quot;:0};" parent="1" vertex="1">
          <mxGeometry x="540" y="380" width="10" height="80" as="geometry" />
        </mxCell>
        <mxCell id="W8KMmCxhdzmbt_tsZO_R-45" value="Nhập OTP, Mật khẩu mới, Xác nhận mật khẩu mới" style="html=1;verticalAlign=bottom;endArrow=block;curved=0;rounded=0;" parent="1" target="W8KMmCxhdzmbt_tsZO_R-43" edge="1">
          <mxGeometry x="0.0025" width="80" relative="1" as="geometry">
            <mxPoint x="230" y="400" as="sourcePoint" />
            <mxPoint x="310" y="400" as="targetPoint" />
            <mxPoint as="offset" />
          </mxGeometry>
        </mxCell>
        <mxCell id="W8KMmCxhdzmbt_tsZO_R-46" value="Nhập OTP, Mật khẩu mới,xác nhận mật khẩu mới" style="html=1;verticalAlign=bottom;endArrow=open;dashed=1;endSize=8;curved=0;rounded=0;" parent="1" target="W8KMmCxhdzmbt_tsZO_R-14" edge="1">
          <mxGeometry relative="1" as="geometry">
            <mxPoint x="540" y="304.23" as="sourcePoint" />
            <mxPoint x="460" y="304.23" as="targetPoint" />
          </mxGeometry>
        </mxCell>
        <mxCell id="W8KMmCxhdzmbt_tsZO_R-49" value="" style="endArrow=none;dashed=1;html=1;rounded=0;entryX=0.5;entryY=1;entryDx=0;entryDy=0;" parent="1" source="W8KMmCxhdzmbt_tsZO_R-64" target="W8KMmCxhdzmbt_tsZO_R-50" edge="1">
          <mxGeometry width="50" height="50" relative="1" as="geometry">
            <mxPoint x="750" y="850" as="sourcePoint" />
            <mxPoint x="750" y="330" as="targetPoint" />
          </mxGeometry>
        </mxCell>
        <mxCell id="W8KMmCxhdzmbt_tsZO_R-50" value="" style="html=1;points=[[0,0,0,0,5],[0,1,0,0,-5],[1,0,0,0,5],[1,1,0,0,-5]];perimeter=orthogonalPerimeter;outlineConnect=0;targetShapes=umlLifeline;portConstraint=eastwest;newEdgeStyle={&quot;curved&quot;:0,&quot;rounded&quot;:0};" parent="1" vertex="1">
          <mxGeometry x="745" y="410" width="10" height="80" as="geometry" />
        </mxCell>
        <mxCell id="W8KMmCxhdzmbt_tsZO_R-52" value="submitNewPassword(email,&lt;div&gt;&amp;nbsp;otp, newPassword)&lt;/div&gt;" style="html=1;verticalAlign=bottom;endArrow=block;curved=0;rounded=0;" parent="1" target="W8KMmCxhdzmbt_tsZO_R-50" edge="1">
          <mxGeometry width="80" relative="1" as="geometry">
            <mxPoint x="550" y="429.23" as="sourcePoint" />
            <mxPoint x="630" y="429.23" as="targetPoint" />
          </mxGeometry>
        </mxCell>
        <mxCell id="W8KMmCxhdzmbt_tsZO_R-53" value="processPasswordReset(email,&amp;nbsp;&lt;div&gt;otp, newPassword)&lt;/div&gt;" style="html=1;verticalAlign=bottom;endArrow=block;curved=0;rounded=0;" parent="1" target="W8KMmCxhdzmbt_tsZO_R-35" edge="1">
          <mxGeometry x="-0.0037" width="80" relative="1" as="geometry">
            <mxPoint x="755" y="460" as="sourcePoint" />
            <mxPoint x="960" y="460" as="targetPoint" />
            <mxPoint as="offset" />
          </mxGeometry>
        </mxCell>
        <mxCell id="W8KMmCxhdzmbt_tsZO_R-55" value="verifyOTP(email, otp)" style="html=1;verticalAlign=bottom;endArrow=block;curved=0;rounded=0;" parent="1" target="W8KMmCxhdzmbt_tsZO_R-54" edge="1">
          <mxGeometry width="80" relative="1" as="geometry">
            <mxPoint x="975" y="499.23" as="sourcePoint" />
            <mxPoint x="1055" y="499.23" as="targetPoint" />
          </mxGeometry>
        </mxCell>
        <mxCell id="W8KMmCxhdzmbt_tsZO_R-56" value="" style="endArrow=none;dashed=1;html=1;rounded=0;entryX=0.5;entryY=1;entryDx=0;entryDy=0;entryPerimeter=0;exitX=0.952;exitY=1;exitDx=0;exitDy=0;exitPerimeter=0;" parent="1" target="W8KMmCxhdzmbt_tsZO_R-54" edge="1" source="5d_SmO3lW9Q9y3Tc88da-19">
          <mxGeometry width="50" height="50" relative="1" as="geometry">
            <mxPoint x="1150" y="800" as="sourcePoint" />
            <mxPoint x="1150" y="90" as="targetPoint" />
          </mxGeometry>
        </mxCell>
        <mxCell id="W8KMmCxhdzmbt_tsZO_R-54" value="" style="html=1;points=[[0,0,0,0,5],[0,1,0,0,-5],[1,0,0,0,5],[1,1,0,0,-5]];perimeter=orthogonalPerimeter;outlineConnect=0;targetShapes=umlLifeline;portConstraint=eastwest;newEdgeStyle={&quot;curved&quot;:0,&quot;rounded&quot;:0};" parent="1" vertex="1">
          <mxGeometry x="1145" y="490" width="10" height="190" as="geometry" />
        </mxCell>
        <mxCell id="W8KMmCxhdzmbt_tsZO_R-57" value="otpValidationResult(true/false)" style="html=1;verticalAlign=bottom;endArrow=open;dashed=1;endSize=8;curved=0;rounded=0;" parent="1" target="W8KMmCxhdzmbt_tsZO_R-35" edge="1">
          <mxGeometry x="-0.0045" relative="1" as="geometry">
            <mxPoint x="1145" y="540" as="sourcePoint" />
            <mxPoint x="1065" y="540" as="targetPoint" />
            <mxPoint as="offset" />
          </mxGeometry>
        </mxCell>
        <mxCell id="W8KMmCxhdzmbt_tsZO_R-59" value="OTP hợp lệ" style="shape=umlFrame;whiteSpace=wrap;html=1;pointerEvents=0;" parent="1" vertex="1">
          <mxGeometry x="880" y="560" width="300" height="100" as="geometry" />
        </mxCell>
        <mxCell id="W8KMmCxhdzmbt_tsZO_R-61" value="updateUserPassword(email,&amp;nbsp;&lt;div&gt;hashedNewPassword)&lt;/div&gt;" style="html=1;verticalAlign=bottom;endArrow=block;curved=0;rounded=0;" parent="1" edge="1">
          <mxGeometry width="80" relative="1" as="geometry">
            <mxPoint x="975" y="600" as="sourcePoint" />
            <mxPoint x="1145" y="600.0000000000002" as="targetPoint" />
          </mxGeometry>
        </mxCell>
        <mxCell id="W8KMmCxhdzmbt_tsZO_R-62" value="updateStatus(success/failure)" style="html=1;verticalAlign=bottom;endArrow=open;dashed=1;endSize=8;curved=0;rounded=0;" parent="1" target="W8KMmCxhdzmbt_tsZO_R-35" edge="1">
          <mxGeometry relative="1" as="geometry">
            <mxPoint x="1140" y="640" as="sourcePoint" />
            <mxPoint x="1060" y="640" as="targetPoint" />
          </mxGeometry>
        </mxCell>
        <mxCell id="W8KMmCxhdzmbt_tsZO_R-63" value="passwordResetStatus(status, message)" style="html=1;verticalAlign=bottom;endArrow=open;dashed=1;endSize=8;curved=0;rounded=0;" parent="1" target="W8KMmCxhdzmbt_tsZO_R-64" edge="1">
          <mxGeometry relative="1" as="geometry">
            <mxPoint x="965" y="700" as="sourcePoint" />
            <mxPoint x="885" y="700" as="targetPoint" />
          </mxGeometry>
        </mxCell>
        <mxCell id="W8KMmCxhdzmbt_tsZO_R-65" value="" style="endArrow=none;dashed=1;html=1;rounded=0;entryX=0.5;entryY=1;entryDx=0;entryDy=0;exitX=0.567;exitY=1;exitDx=0;exitDy=0;exitPerimeter=0;" parent="1" target="W8KMmCxhdzmbt_tsZO_R-64" edge="1" source="5d_SmO3lW9Q9y3Tc88da-19">
          <mxGeometry width="50" height="50" relative="1" as="geometry">
            <mxPoint x="750" y="850" as="sourcePoint" />
            <mxPoint x="750" y="490" as="targetPoint" />
          </mxGeometry>
        </mxCell>
        <mxCell id="W8KMmCxhdzmbt_tsZO_R-64" value="" style="html=1;points=[[0,0,0,0,5],[0,1,0,0,-5],[1,0,0,0,5],[1,1,0,0,-5]];perimeter=orthogonalPerimeter;outlineConnect=0;targetShapes=umlLifeline;portConstraint=eastwest;newEdgeStyle={&quot;curved&quot;:0,&quot;rounded&quot;:0};" parent="1" vertex="1">
          <mxGeometry x="745" y="690" width="10" height="50" as="geometry" />
        </mxCell>
        <mxCell id="W8KMmCxhdzmbt_tsZO_R-68" value="" style="endArrow=none;dashed=1;html=1;rounded=0;entryX=0.5;entryY=1;entryDx=0;entryDy=0;exitX=0.37;exitY=1.003;exitDx=0;exitDy=0;exitPerimeter=0;" parent="1" target="W8KMmCxhdzmbt_tsZO_R-67" edge="1" source="5d_SmO3lW9Q9y3Tc88da-19">
          <mxGeometry width="50" height="50" relative="1" as="geometry">
            <mxPoint x="545" y="850" as="sourcePoint" />
            <mxPoint x="545" y="460" as="targetPoint" />
          </mxGeometry>
        </mxCell>
        <mxCell id="W8KMmCxhdzmbt_tsZO_R-67" value="" style="html=1;points=[[0,0,0,0,5],[0,1,0,0,-5],[1,0,0,0,5],[1,1,0,0,-5]];perimeter=orthogonalPerimeter;outlineConnect=0;targetShapes=umlLifeline;portConstraint=eastwest;newEdgeStyle={&quot;curved&quot;:0,&quot;rounded&quot;:0};" parent="1" vertex="1">
          <mxGeometry x="540" y="710" width="10" height="60" as="geometry" />
        </mxCell>
        <mxCell id="W8KMmCxhdzmbt_tsZO_R-69" value="displayResetStatus(message)" style="html=1;verticalAlign=bottom;endArrow=open;dashed=1;endSize=8;curved=0;rounded=0;" parent="1" target="W8KMmCxhdzmbt_tsZO_R-67" edge="1">
          <mxGeometry relative="1" as="geometry">
            <mxPoint x="740" y="719.29" as="sourcePoint" />
            <mxPoint x="660" y="719.29" as="targetPoint" />
          </mxGeometry>
        </mxCell>
        <mxCell id="Y2l8gFHpml1ImoSOgPRP-2" value="" style="shape=umlBoundary;whiteSpace=wrap;html=1;fillColor=light-dark(#FFFFCC,#FFFFCC);" parent="1" vertex="1">
          <mxGeometry x="320" y="-30" width="100" height="80" as="geometry" />
        </mxCell>
        <mxCell id="Y2l8gFHpml1ImoSOgPRP-3" value="" style="shape=umlBoundary;whiteSpace=wrap;html=1;fillColor=light-dark(#FFFFCC,#FFFFCC);" parent="1" vertex="1">
          <mxGeometry x="490" y="-30" width="100" height="80" as="geometry" />
        </mxCell>
        <mxCell id="Y2l8gFHpml1ImoSOgPRP-4" value="" style="ellipse;shape=umlControl;whiteSpace=wrap;html=1;fillColor=light-dark(#FFFFCC,#FFFFCC);" parent="1" vertex="1">
          <mxGeometry x="715" y="-30" width="70" height="80" as="geometry" />
        </mxCell>
        <mxCell id="Y2l8gFHpml1ImoSOgPRP-6" value="" style="ellipse;shape=umlEntity;whiteSpace=wrap;html=1;fillColor=light-dark(#FFFFCC,#FFFFCC);" parent="1" vertex="1">
          <mxGeometry x="930" y="-30" width="80" height="80" as="geometry" />
        </mxCell>
        <mxCell id="5d_SmO3lW9Q9y3Tc88da-1" value="" style="endArrow=none;dashed=1;html=1;rounded=0;entryX=0.502;entryY=1.013;entryDx=0;entryDy=0;entryPerimeter=0;" edge="1" parent="1" target="W8KMmCxhdzmbt_tsZO_R-16">
          <mxGeometry width="50" height="50" relative="1" as="geometry">
            <mxPoint x="369.50000000000006" y="148.96" as="sourcePoint" />
            <mxPoint x="369.50000000000006" y="79.99999999999997" as="targetPoint" />
          </mxGeometry>
        </mxCell>
        <mxCell id="W8KMmCxhdzmbt_tsZO_R-16" value="" style="html=1;points=[[0,0,0,0,5],[0,1,0,0,-5],[1,0,0,0,5],[1,1,0,0,-5]];perimeter=orthogonalPerimeter;outlineConnect=0;targetShapes=umlLifeline;portConstraint=eastwest;newEdgeStyle={&quot;curved&quot;:0,&quot;rounded&quot;:0};" parent="1" vertex="1">
          <mxGeometry x="365" y="120" width="10" height="40" as="geometry" />
        </mxCell>
        <mxCell id="5d_SmO3lW9Q9y3Tc88da-4" value="" style="shape=umlDestroy;whiteSpace=wrap;html=1;strokeWidth=2;targetShapes=umlLifeline;fontSize=6;" vertex="1" parent="1">
          <mxGeometry x="362.5" y="170" width="15" height="15" as="geometry" />
        </mxCell>
        <mxCell id="5d_SmO3lW9Q9y3Tc88da-8" value="Login Page" style="text;html=1;align=center;verticalAlign=middle;resizable=0;points=[];autosize=1;strokeColor=none;fillColor=none;" vertex="1" parent="1">
          <mxGeometry x="330" y="50" width="80" height="30" as="geometry" />
        </mxCell>
        <mxCell id="5d_SmO3lW9Q9y3Tc88da-9" value="Forgot Password Page" style="text;html=1;align=center;verticalAlign=middle;resizable=0;points=[];autosize=1;strokeColor=none;fillColor=none;" vertex="1" parent="1">
          <mxGeometry x="470" y="50" width="150" height="30" as="geometry" />
        </mxCell>
        <mxCell id="5d_SmO3lW9Q9y3Tc88da-11" value="AuthController" style="text;html=1;align=center;verticalAlign=middle;resizable=0;points=[];autosize=1;strokeColor=none;fillColor=none;" vertex="1" parent="1">
          <mxGeometry x="700" y="50" width="100" height="30" as="geometry" />
        </mxCell>
        <mxCell id="5d_SmO3lW9Q9y3Tc88da-12" value="&lt;span style=&quot;text-wrap-mode: wrap;&quot;&gt;UserService&lt;/span&gt;" style="text;html=1;align=center;verticalAlign=middle;resizable=0;points=[];autosize=1;strokeColor=none;fillColor=none;" vertex="1" parent="1">
          <mxGeometry x="925" y="50" width="90" height="30" as="geometry" />
        </mxCell>
        <mxCell id="5d_SmO3lW9Q9y3Tc88da-13" value="&lt;span style=&quot;text-wrap-mode: wrap;&quot;&gt;Database&lt;/span&gt;" style="text;html=1;align=center;verticalAlign=middle;resizable=0;points=[];autosize=1;strokeColor=none;fillColor=none;" vertex="1" parent="1">
          <mxGeometry x="1115" y="50" width="70" height="30" as="geometry" />
        </mxCell>
        <mxCell id="5d_SmO3lW9Q9y3Tc88da-14" value="" style="endArrow=none;dashed=1;html=1;rounded=0;entryX=0.5;entryY=1;entryDx=0;entryDy=0;entryPerimeter=0;" edge="1" parent="1" target="5d_SmO3lW9Q9y3Tc88da-15">
          <mxGeometry width="50" height="50" relative="1" as="geometry">
            <mxPoint x="1149.5" y="510" as="sourcePoint" />
            <mxPoint x="1149.5" y="80" as="targetPoint" />
          </mxGeometry>
        </mxCell>
        <mxCell id="5d_SmO3lW9Q9y3Tc88da-16" value="saveOTP(email,OTP)" style="html=1;verticalAlign=bottom;endArrow=block;curved=0;rounded=0;" edge="1" parent="1" target="5d_SmO3lW9Q9y3Tc88da-15">
          <mxGeometry width="80" relative="1" as="geometry">
            <mxPoint x="975" y="320" as="sourcePoint" />
            <mxPoint x="1055" y="320" as="targetPoint" />
          </mxGeometry>
        </mxCell>
        <mxCell id="5d_SmO3lW9Q9y3Tc88da-17" value="OK" style="html=1;verticalAlign=bottom;endArrow=open;dashed=1;endSize=8;curved=0;rounded=0;" edge="1" parent="1">
          <mxGeometry relative="1" as="geometry">
            <mxPoint x="1145" y="350" as="sourcePoint" />
            <mxPoint x="975" y="350" as="targetPoint" />
          </mxGeometry>
        </mxCell>
        <mxCell id="5d_SmO3lW9Q9y3Tc88da-18" value="" style="html=1;verticalAlign=bottom;endArrow=open;dashed=1;endSize=8;curved=0;rounded=0;" edge="1" parent="1" target="5d_SmO3lW9Q9y3Tc88da-15">
          <mxGeometry relative="1" as="geometry">
            <mxPoint x="1145" y="350" as="sourcePoint" />
            <mxPoint x="975" y="350" as="targetPoint" />
          </mxGeometry>
        </mxCell>
        <mxCell id="5d_SmO3lW9Q9y3Tc88da-15" value="" style="html=1;points=[[0,0,0,0,5],[0,1,0,0,-5],[1,0,0,0,5],[1,1,0,0,-5]];perimeter=orthogonalPerimeter;outlineConnect=0;targetShapes=umlLifeline;portConstraint=eastwest;newEdgeStyle={&quot;curved&quot;:0,&quot;rounded&quot;:0};" vertex="1" parent="1">
          <mxGeometry x="1145" y="310" width="10" height="60" as="geometry" />
        </mxCell>
        <mxCell id="5d_SmO3lW9Q9y3Tc88da-19" value="Đổi mật khẩu" style="shape=umlFrame;whiteSpace=wrap;html=1;pointerEvents=0;width=110;height=30;" vertex="1" parent="1">
          <mxGeometry x="160" y="-60" width="1040" height="900" as="geometry" />
        </mxCell>
      </root>
    </mxGraphModel>
  </diagram>
</mxfile>
